PathFileType	4	(X/Y/Z)	D:\TRACE\spotREDO_2-26-24\spot_justArm_Motion_1_1-v60.trc
DataRate	CameraRate	NumFrames	NumMarkers	Units	OrigDataRate	OrigDataStartFrame	OrigNumFrames
100.00	100.00	      14	9	mm	100.00	1751	      7000
Frame#	Time	front left toe			Front right toe			aft left toe			aft right toe			Arm			FL body			FR body			AL Body			AR Body			
		X1	Y1	Z1	X2	Y2	Z2	X3	Y3	Z3	X4	Y4	Z4	X5	Y5	Z5	X6	Y6	Z6	X7	Y7	Z7	X8	Y8	Z8	X9	Y9	Z9	

1751	17.500	-342.63977	20.50900	-28.69399	91.41438	29.84161	-149.91156	-212.57848	-0.01623	557.59222	224.69521	11.27191	450.03934	-98.70589	688.30865	-759.24908	-247.36285	552.76874	-124.53085	-95.14819	556.92126	-160.92917	-50.30608	545.27356	736.51727	95.28796	545.93030	705.07428	
1752	17.510	-341.32159	20.35188	-28.59032	92.37915	29.85550	-149.88123	-211.50237	-0.04958	557.63989	225.36882	10.83159	449.95859	-97.98434	688.38055	-758.97107	-246.34122	553.08008	-124.44914	-93.82972	556.98053	-160.63998	-49.12909	544.90930	736.58435	96.38912	545.73120	705.27051	
1753	17.520	-340.34451	20.49185	-28.73348	92.55782	29.41279	-150.06531	-210.34047	-0.49906	557.74670	227.04305	11.13162	450.23096	-97.35870	688.41425	-758.82104	-245.40370	553.22681	-124.30421	-92.60969	557.04291	-160.38275	-48.14671	544.66602	736.71924	97.36703	545.28918	705.15735	
1754	17.530	-339.43677	20.47847	-28.33861	93.43509	29.49134	-149.99518	-209.84859	-0.36343	557.55768	227.34152	10.93548	450.22314	-96.70689	688.38513	-758.84924	-244.51060	553.27905	-124.09589	-91.92656	557.12921	-160.31413	-46.84408	544.39697	736.74512	98.56685	544.95715	705.21381	
1755	17.540	-338.53000	20.46255	-28.63441	94.42191	29.49577	-149.86533	-208.49939	-0.52961	557.70032	228.29588	10.70258	450.21033	-95.90821	688.46039	-758.70813	-243.42877	553.42603	-124.04627	-91.01615	557.31207	-160.30692	-46.09232	544.23730	736.99750	99.51671	544.67346	705.23138	
1756	17.550	-337.41364	20.56978	-28.37482	96.16365	30.05660	-149.67874	-207.72884	-0.72194	557.61505	229.67905	10.58222	450.29257	-94.93501	688.52386	-758.24323	-242.29759	553.46063	-123.99753	-90.01244	557.48615	-160.35867	-44.78329	544.00781	737.08136	100.80824	543.90588	704.71338	
1757	17.560	-336.38348	20.40278	-28.16229	97.38503	30.14948	-149.55223	-206.80746	-0.93673	557.79248	230.20578	10.34608	450.22098	-93.88840	688.68555	-757.95807	-241.48186	553.63959	-123.84507	-89.16872	557.54211	-160.45442	-43.40518	543.73633	737.17542	102.07012	544.18225	705.29071	
1758	17.570	-335.65088	20.55453	-28.13456	97.41159	29.48525	-149.73959	-205.50179	-1.19839	557.79657	231.71594	10.65336	450.44992	-93.12825	688.91003	-757.95416	-240.38713	553.71527	-123.69931	-88.10767	557.55469	-160.39890	-42.26415	543.59296	737.23438	103.30487	543.77838	705.40930	
1759	17.580	-334.61615	20.63321	-28.16618	98.50497	29.57818	-149.75194	-204.77058	-1.05340	557.98816	232.38731	10.40872	450.40298	-91.98933	688.86548	-757.64941	-239.22699	553.96466	-123.69868	-86.93455	557.62695	-160.24696	-41.27070	543.36511	737.39960	104.33788	543.67645	705.46326	
1760	17.590	-333.68402	20.66706	-28.03861	99.33334	29.53140	-149.79533	-203.58365	-1.32763	558.20605	233.04675	9.84130	450.38821	-91.07101	688.96863	-757.69806	-238.19542	554.07373	-123.52224	-85.79911	557.77289	-160.07138	-39.79284	543.08307	737.42926	105.63163	543.53027	705.58215	
1761	17.600	-332.41376	20.50619	-27.78133	101.00910	30.21488	-149.47279	-202.50714	-1.35068	558.34680	234.44978	9.99636	450.45059	-90.06135	689.04895	-757.71082	-237.06364	554.05664	-123.46117	-84.49243	557.78064	-159.80072	-39.02393	542.98450	737.44513	106.60288	543.24097	705.66150	
1762	17.610	-331.93893	20.64841	-28.04913	101.28640	29.85155	-149.50424	-201.75777	-1.49435	558.28229	235.39468	10.19649	450.55374	-89.15646	689.26050	-757.62714	-235.84398	554.10791	-123.41615	-83.26469	557.80182	-159.70010	-37.93546	542.82214	737.40948	107.69234	543.02954	705.69342	
1763	17.620	-330.39154	20.52635	-27.84953	102.41548	29.68688	-149.42386	-200.78351	-1.66208	558.19299	236.17799	9.95142	450.53036	-88.02924	689.39612	-757.34009	-234.57101	554.26624	-123.37240	-82.33765	557.97864	-159.95181	-37.12598	542.78711	737.58026	108.34514	543.05591	705.82782	
1764	17.630	-329.67056	20.63512	-27.95797	103.50132	29.66621	-149.28815	-199.93764	-1.59111	558.07440	237.20508	9.79952	450.65970	-86.98116	689.86584	-757.39783	-233.48807	554.27802	-123.34982	-81.31829	558.04407	-160.10217	-35.73885	542.57959	737.74646	109.49375	542.87646	706.04175	
